<?xml version="1.0" encoding="utf-8"?>
<!-- Generator: Adobe Illustrator 18.0.0, SVG Export Plug-In . SVG Version: 6.00 Build 0)  -->
<!DOCTYPE svg PUBLIC "-//W3C//DTD SVG 1.1//EN" "http://www.w3.org/Graphics/SVG/1.1/DTD/svg11.dtd">
<svg version="1.1" id="图层_1" xmlns="http://www.w3.org/2000/svg" xmlns:xlink="http://www.w3.org/1999/xlink" x="0px" y="0px"
	 viewBox="0 0 1000 1000" style="enable-background:new 0 0 1000 1000;" xml:space="preserve">
<style type="text/css">
	.st0{fill:#020000;}
	.st1{fill-rule:evenodd;clip-rule:evenodd;}
	.st2{fill:#020202;}
	.st3{fill:#5A9BFD;stroke:#5A9BFD;stroke-width:40;stroke-linecap:round;stroke-miterlimit:10;}
	.st4{fill:none;stroke:#FFFFFF;stroke-width:40;stroke-linecap:round;stroke-miterlimit:10;}
	.st5{fill:none;stroke:#020000;stroke-width:50;stroke-linecap:round;stroke-miterlimit:10;}
	.st6{fill:none;}
	.st7{fill:none;stroke:#000000;stroke-width:50;stroke-linecap:round;stroke-linejoin:round;stroke-miterlimit:10;}
</style>
<g>
	<path d="M586.8,840.6h-258c-60.3,0-109.3-49-109.3-109.3v-458c0-60.3,49-109.3,109.3-109.3h357.6c60.3,0,109.3,49,109.3,109.3v246
		c0,13.8-11.2,25-25,25s-25-11.2-25-25v-246c0-32.7-26.6-59.3-59.3-59.3H328.8c-32.7,0-59.3,26.6-59.3,59.3v458
		c0,32.7,26.6,59.3,59.3,59.3h258c13.8,0,25,11.2,25,25S600.6,840.6,586.8,840.6z"/>
</g>
<g>
	<path d="M641.3,346.8h-286c-13.8,0-25-11.2-25-25s11.2-25,25-25h286c13.8,0,25,11.2,25,25S655.1,346.8,641.3,346.8z"/>
</g>
<g>
	<path d="M648.1,481.3H355.2c-13.8,0-25-11.2-25-25s11.2-25,25-25h292.9c13.8,0,25,11.2,25,25S661.9,481.3,648.1,481.3z"/>
</g>
<g>
	<path d="M484.6,604.2H348.4c-13.8,0-25-11.2-25-25s11.2-25,25-25h136.2c13.8,0,25,11.2,25,25S498.4,604.2,484.6,604.2z"/>
</g>
<g>
	<path d="M677,788.9L547.4,665.1c-10-9.5-10.4-25.4-0.8-35.3c9.5-10,25.4-10.4,35.3-0.8l95.1,90.8l183.7-175.9
		c10-9.5,25.8-9.2,35.3,0.8c9.5,10,9.2,25.8-0.8,35.3L677,788.9z"/>
</g>
</svg>
