<?xml version="1.0" encoding="utf-8"?>
<!-- Generator: Adobe Illustrator 18.0.0, SVG Export Plug-In . SVG Version: 6.00 Build 0)  -->
<!DOCTYPE svg PUBLIC "-//W3C//DTD SVG 1.1//EN" "http://www.w3.org/Graphics/SVG/1.1/DTD/svg11.dtd">
<svg version="1.1" id="图层_1" xmlns="http://www.w3.org/2000/svg" xmlns:xlink="http://www.w3.org/1999/xlink" x="0px" y="0px"
	 viewBox="0 0 1024 1024" style="enable-background:new 0 0 1024 1024;" xml:space="preserve">
<style type="text/css">
	.st0{fill:#040000;}
	.st1{fill:none;stroke:#040000;stroke-width:45;stroke-linecap:round;stroke-linejoin:round;stroke-miterlimit:10;}
	.st2{fill:none;stroke:#000000;stroke-width:50;stroke-linecap:round;stroke-miterlimit:10;}
	.st3{fill:#231815;}
	.st4{fill:none;}
	.st5{fill-rule:evenodd;clip-rule:evenodd;}
</style>
<g>
	<path class="st3" d="M380.5,681.2c-15.1,0-29.7-4.1-42.3-12c-39.7-24.8-72.9-59.5-96-100.3c-23.8-42-36.4-89.9-36.4-138.5
		c0-73.5,28.1-143,79.3-195.8c51-52.6,119.3-83,192.5-85.5c3.2-0.1,6.5-0.2,9.7-0.2c38.3,0,75.6,7.7,110.7,22.8
		c33.9,14.6,64.2,35.5,90.2,62c25.9,26.5,46.1,57.2,60,91.3c14.4,35.4,21.3,72.9,20.5,111.3c-1.9,94.4-50.8,181-130.6,231.8
		c-12.9,8.2-27.7,12.5-43,12.6L380.5,681.2z M487.2,194c-2.7,0-5.4,0-8.1,0.1c-128,4.4-228.2,108.2-228.2,236.3
		c0,82.1,41.6,157.1,111.3,200.6c5.4,3.4,11.8,5.2,18.4,5.2h0.1l214.4-0.6c6.7,0,13.3-1.9,19-5.5c67.1-42.6,108.1-115.4,109.7-194.7
		C725,371.6,701,311.1,656,265.3C611,219.3,551.1,194,487.2,194z"/>
</g>
<g>
	<path class="st3" d="M622.1,778.1h-269c-12.4,0-22.5-10.1-22.5-22.5s10.1-22.5,22.5-22.5h269c12.4,0,22.5,10.1,22.5,22.5
		S634.6,778.1,622.1,778.1z"/>
</g>
<g>
	<path class="st3" d="M593.9,866.1H389.1c-12.4,0-22.5-10.1-22.5-22.5s10.1-22.5,22.5-22.5h204.8c12.4,0,22.5,10.1,22.5,22.5
		S606.3,866.1,593.9,866.1z"/>
</g>
<g>
	<path class="st3" d="M625.1,457.1c-12,0-22-9.5-22.5-21.6c-2.3-57.7-24.9-97.9-67.1-119.5c-31.8-16.2-63.6-15.9-63.9-15.9
		c-12.4,0.3-22.7-9.6-23-22c-0.3-12.4,9.6-22.7,22-23c1.7,0,43-0.7,85.3,20.8c39.7,20.3,87.9,64.1,91.7,157.8
		c0.5,12.4-9.2,22.9-21.6,23.4C625.7,457.1,625.4,457.1,625.1,457.1z"/>
</g>
</svg>
