<?xml version="1.0" encoding="utf-8"?>
<!-- Generator: Adobe Illustrator 18.0.0, SVG Export Plug-In . SVG Version: 6.00 Build 0)  -->
<!DOCTYPE svg PUBLIC "-//W3C//DTD SVG 1.1//EN" "http://www.w3.org/Graphics/SVG/1.1/DTD/svg11.dtd">
<svg version="1.1" id="图层_1" xmlns="http://www.w3.org/2000/svg" xmlns:xlink="http://www.w3.org/1999/xlink" x="0px" y="0px"
	 viewBox="0 0 1024 1024" style="enable-background:new 0 0 1024 1024;" xml:space="preserve">
<style type="text/css">
	.st0{fill:#040000;}
	.st1{fill:none;stroke:#040000;stroke-width:45;stroke-linecap:round;stroke-linejoin:round;stroke-miterlimit:10;}
	.st2{fill:none;stroke:#000000;stroke-width:50;stroke-linecap:round;stroke-miterlimit:10;}
	.st3{fill:#231815;}
	.st4{fill:none;}
	.st5{fill-rule:evenodd;clip-rule:evenodd;}
</style>
<g>
	<path d="M167.4,527.5c-4.3,0-8.6-1.2-12.5-3.8c-10.3-6.9-13.1-20.9-6.2-31.2c2.3-3.4,2.3-3.5,61-55.2
		c30-26.4,71.6-62.9,123.7-108.7c88.7-77.8,178.4-156.3,179.3-157.1c8.6-7.5,21.4-7.4,29.8,0.2l353.4,316.4
		c9.3,8.3,10,22.5,1.8,31.8c-8.3,9.3-22.5,10-31.8,1.8L527.3,218.6C389.9,338.9,196.1,508.9,183.7,520.5
		C179.4,525.1,173.5,527.5,167.4,527.5z"/>
</g>
<g>
	<path d="M766.7,889.4h-94.4c-32.9,0-60-26.8-60.2-59.7l-1.5-177c0-5.8-4.8-10.4-10.5-10.4H456.6c-5.7,0-10.5,4.7-10.5,10.4
		l-1.5,177c-0.3,32.9-27.3,59.7-60.2,59.7H282.7c-33.2,0-60.2-27-60.2-60.2V445c0-12.4,10.1-22.5,22.5-22.5s22.5,10.1,22.5,22.5
		v384.2c0,8.4,6.8,15.2,15.2,15.2h101.7c8.3,0,15.2-6.8,15.2-15.1l1.5-177c0.3-30.4,25.2-55,55.5-55H600c30.4,0,55.3,24.7,55.5,55.1
		l1.5,177c0.1,8.3,6.9,15.1,15.2,15.1h94.4c8.4,0,15.2-6.8,15.2-15.2V445c0-12.4,10.1-22.5,22.5-22.5s22.5,10.1,22.5,22.5v384.2
		C826.9,862.4,799.9,889.4,766.7,889.4z"/>
</g>
</svg>
