<?xml version="1.0" encoding="utf-8"?>
<!-- Generator: Adobe Illustrator 18.0.0, SVG Export Plug-In . SVG Version: 6.00 Build 0)  -->
<!DOCTYPE svg PUBLIC "-//W3C//DTD SVG 1.1//EN" "http://www.w3.org/Graphics/SVG/1.1/DTD/svg11.dtd">
<svg version="1.1" id="图层_1" xmlns="http://www.w3.org/2000/svg" xmlns:xlink="http://www.w3.org/1999/xlink" x="0px" y="0px"
	 viewBox="0 0 1024 1024" style="enable-background:new 0 0 1024 1024;" xml:space="preserve">
<style type="text/css">
	.st0{fill:#040000;}
	.st1{fill:none;stroke:#040000;stroke-width:45;stroke-linecap:round;stroke-linejoin:round;stroke-miterlimit:10;}
	.st2{fill:none;stroke:#000000;stroke-width:50;stroke-linecap:round;stroke-miterlimit:10;}
	.st3{fill:#231815;}
	.st4{fill:none;}
	.st5{fill-rule:evenodd;clip-rule:evenodd;}
</style>
<g>
	<path class="st2" d="M628.4,89.8"/>
</g>
<g>
	<path d="M492.6,917.5c-53.4,0-105.2-10.5-154-31.1c-47.1-19.9-89.4-48.4-125.7-84.8c-36.3-36.3-64.8-78.6-84.8-125.7
		c-20.6-48.8-31.1-100.6-31.1-154c0-53.4,10.5-105.2,31.1-154c19.9-47.1,48.4-89.4,84.8-125.7c36.3-36.3,78.6-64.8,125.7-84.7
		c48.8-20.6,100.6-31.1,154-31.1c61.1,0,119.7,13.6,174.2,40.3c11.2,5.5,15.8,19,10.3,30.1c-5.5,11.2-19,15.7-30.1,10.3
		c-48.2-23.7-100.2-35.7-154.4-35.7c-193.3,0-350.5,157.2-350.5,350.5s157.2,350.5,350.5,350.5S843.1,715.2,843.1,522
		c0-31.8-4.3-63.3-12.6-93.6c-3.3-12,3.7-24.4,15.7-27.7c12-3.3,24.4,3.7,27.7,15.7c9.5,34.2,14.3,69.8,14.3,105.6
		c0,53.4-10.5,105.2-31.1,154c-19.9,47.1-48.4,89.4-84.7,125.7c-36.3,36.3-78.6,64.8-125.7,84.8C597.8,907,546,917.5,492.6,917.5z"
		/>
</g>
<g>
	<path d="M548.3,558.3c-5.8,0-11.5-2.2-15.9-6.6c-8.8-8.8-8.8-23,0-31.8l276-276c8.8-8.8,23-8.8,31.8,0c8.8,8.8,8.8,23,0,31.8
		l-276,276C559.9,556.1,554.1,558.3,548.3,558.3z"/>
</g>
<g>
	<path d="M380,416.1h-53.6c-12.4,0-22.5-10.1-22.5-22.5s10.1-22.5,22.5-22.5H380c12.4,0,22.5,10.1,22.5,22.5S392.4,416.1,380,416.1z
		"/>
</g>
<g>
	<path d="M541.9,416.1h-96.2c-12.4,0-22.5-10.1-22.5-22.5s10.1-22.5,22.5-22.5h96.2c12.4,0,22.5,10.1,22.5,22.5
		S554.4,416.1,541.9,416.1z"/>
</g>
<g>
	<path d="M380,559.4h-53.6c-12.4,0-22.5-10.1-22.5-22.5s10.1-22.5,22.5-22.5H380c12.4,0,22.5,10.1,22.5,22.5S392.4,559.4,380,559.4z
		"/>
</g>
<g>
	<path d="M548.3,559.4H445.7c-12.4,0-22.5-10.1-22.5-22.5s10.1-22.5,22.5-22.5h102.6c12.4,0,22.5,10.1,22.5,22.5
		S560.8,559.4,548.3,559.4z"/>
</g>
<g>
	<path d="M380,694.4h-53.6c-12.4,0-22.5-10.1-22.5-22.5s10.1-22.5,22.5-22.5H380c12.4,0,22.5,10.1,22.5,22.5S392.4,694.4,380,694.4z
		"/>
</g>
<g>
	<path d="M697.5,694.4H445.7c-12.4,0-22.5-10.1-22.5-22.5s10.1-22.5,22.5-22.5h251.8c12.4,0,22.5,10.1,22.5,22.5
		S710,694.4,697.5,694.4z"/>
</g>
</svg>
