<?xml version="1.0" encoding="utf-8"?>
<!-- Generator: Adobe Illustrator 18.0.0, SVG Export Plug-In . SVG Version: 6.00 Build 0)  -->
<!DOCTYPE svg PUBLIC "-//W3C//DTD SVG 1.1//EN" "http://www.w3.org/Graphics/SVG/1.1/DTD/svg11.dtd">
<svg version="1.1" id="图层_1" xmlns="http://www.w3.org/2000/svg" xmlns:xlink="http://www.w3.org/1999/xlink" x="0px" y="0px"
	 viewBox="0 0 1024 1024" style="enable-background:new 0 0 1024 1024;" xml:space="preserve">
<style type="text/css">
	.st0{fill:#040000;}
	.st1{fill:none;stroke:#040000;stroke-width:45;stroke-linecap:round;stroke-linejoin:round;stroke-miterlimit:10;}
	.st2{fill:none;stroke:#000000;stroke-width:50;stroke-linecap:round;stroke-miterlimit:10;}
	.st3{fill:#231815;}
	.st4{fill:none;}
	.st5{fill-rule:evenodd;clip-rule:evenodd;}
</style>
<g>
	<path d="M513.4,424.8c-75.4,0-136.7-61.3-136.7-136.7S438,151.5,513.4,151.5S650,212.8,650,288.1S588.7,424.8,513.4,424.8z
		 M513.4,196.5c-50.5,0-91.7,41.1-91.7,91.7s41.1,91.7,91.7,91.7s91.7-41.1,91.7-91.7S563.9,196.5,513.4,196.5z"/>
</g>
<g>
	<path d="M773.4,848.9c-54.2,0-98.3-44.1-98.3-98.3c0-54.2,44.1-98.3,98.3-98.3c54.2,0,98.3,44.1,98.3,98.3
		C871.7,804.8,827.6,848.9,773.4,848.9z M773.4,697.3c-29.4,0-53.3,23.9-53.3,53.3s23.9,53.3,53.3,53.3s53.3-23.9,53.3-53.3
		S802.8,697.3,773.4,697.3z"/>
</g>
<g>
	<path d="M511.2,848.9c-54.2,0-98.3-44.1-98.3-98.3c0-54.2,44.1-98.3,98.3-98.3c54.2,0,98.3,44.1,98.3,98.3
		C609.5,804.8,565.4,848.9,511.2,848.9z M511.2,697.3c-29.4,0-53.3,23.9-53.3,53.3s23.9,53.3,53.3,53.3s53.3-23.9,53.3-53.3
		S540.6,697.3,511.2,697.3z"/>
</g>
<g>
	<path d="M250.6,848.9c-54.2,0-98.3-44.1-98.3-98.3c0-54.2,44.1-98.3,98.3-98.3c54.2,0,98.3,44.1,98.3,98.3
		C348.8,804.8,304.8,848.9,250.6,848.9z M250.6,697.3c-29.4,0-53.3,23.9-53.3,53.3s23.9,53.3,53.3,53.3s53.3-23.9,53.3-53.3
		S279.9,697.3,250.6,697.3z"/>
</g>
<g>
	<path d="M513.4,689.9c-12.4,0-22.5-10.1-22.5-22.5v-263c0-12.4,10.1-22.5,22.5-22.5s22.5,10.1,22.5,22.5v263
		C535.9,679.9,525.8,689.9,513.4,689.9z"/>
</g>
<g>
	<path d="M241.7,690c-3.2,0-6.4-0.7-9.5-2.1c-11.3-5.2-16.2-18.6-10.9-29.9c26.8-57.8,67-106.5,116.1-140.9
		c51.1-35.7,110-54.6,170.4-54.6c119.1,0,228.2,73.4,284.7,191.5c5.4,11.2,0.6,24.6-10.6,30c-11.2,5.4-24.6,0.6-30-10.6
		C703,571,609.5,507.4,507.9,507.4c-103.1,0-197.3,64.9-245.7,169.5C258.3,685.1,250.2,690,241.7,690z"/>
</g>
</svg>
