<?xml version="1.0" encoding="utf-8"?>
<!-- Generator: Adobe Illustrator 18.0.0, SVG Export Plug-In . SVG Version: 6.00 Build 0)  -->
<!DOCTYPE svg PUBLIC "-//W3C//DTD SVG 1.1//EN" "http://www.w3.org/Graphics/SVG/1.1/DTD/svg11.dtd">
<svg version="1.1" id="图层_1" xmlns="http://www.w3.org/2000/svg" xmlns:xlink="http://www.w3.org/1999/xlink" x="0px" y="0px"
	 viewBox="0 0 1024 1024" style="enable-background:new 0 0 1024 1024;" xml:space="preserve">
<style type="text/css">
	.st0{fill:#040000;}
	.st1{fill:none;stroke:#040000;stroke-width:45;stroke-linecap:round;stroke-linejoin:round;stroke-miterlimit:10;}
</style>
<g>
	<path d="M328.8,872.2C328.8,872.2,328.8,872.2,328.8,872.2c-18.6,0-33.9-14.6-34.7-33.1l-3.4-75.2H187c-34.3,0-62.1-27.9-62.1-62.1
		V393.9c0-33.2,27-60.2,60.2-60.2h541.1c33.2,0,60.2,27,60.2,60.2v301c0,38-30.9,68.9-68.9,68.9H467.3l-115.9,99.9
		C345.1,869.2,337.1,872.2,328.8,872.2z M185.1,373.7c-11.1,0-20.2,9.1-20.2,20.2v307.8c0,12.2,9.9,22.1,22.1,22.1h108.8
		c18.6,0,33.8,14.5,34.6,33.1l3.2,69.4l109.1-94c6.3-5.4,14.3-8.4,22.6-8.4h252.2c15.9,0,28.9-13,28.9-28.9v-301
		c0-11.1-9.1-20.2-20.2-20.2H185.1z"/>
</g>
<g>
	<path d="M821.1,662h-46.8c-11,0-20-9-20-20s9-20,20-20h46.8c15.9,0,28.9-13,28.9-28.9V292c0-11.1-9.1-20.2-20.2-20.2H288.6
		c-11.1,0-20.2,9.1-20.2,20.2v56.5c0,11-9,20-20,20s-20-9-20-20V292c0-33.2,27-60.2,60.2-60.2h541.1c33.2,0,60.2,27,60.2,60.2v301
		C889.9,631.1,859,662,821.1,662z"/>
</g>
</svg>
