<?xml version="1.0" encoding="utf-8"?>
<!-- Generator: Adobe Illustrator 18.0.0, SVG Export Plug-In . SVG Version: 6.00 Build 0)  -->
<!DOCTYPE svg PUBLIC "-//W3C//DTD SVG 1.1//EN" "http://www.w3.org/Graphics/SVG/1.1/DTD/svg11.dtd">
<svg version="1.1" id="图层_1" xmlns="http://www.w3.org/2000/svg" xmlns:xlink="http://www.w3.org/1999/xlink" x="0px" y="0px"
	 viewBox="0 0 1024 1024" style="enable-background:new 0 0 1024 1024;" xml:space="preserve">
<style type="text/css">
	.st0{fill:#040000;}
	.st1{fill:none;stroke:#040000;stroke-width:45;stroke-linecap:round;stroke-linejoin:round;stroke-miterlimit:10;}
	.st2{fill:none;stroke:#000000;stroke-width:50;stroke-linecap:round;stroke-miterlimit:10;}
	.st3{fill:#231815;}
	.st4{fill:none;}
	.st5{fill-rule:evenodd;clip-rule:evenodd;}
</style>
<g>
	<path class="st0" d="M827.5,891.2H196.8c-11,0-20-8.9-20-20c0-1.4-0.2-139.6-0.3-276.2c-0.1-80.3-0.1-144.3,0-190.4
		c0-27.4,0-48.6,0.1-63.1c0.1-27.2,0.1-27.2,1.2-30.7c3.5-10.5,14.8-16.1,25.3-12.7c8.9,3,14.3,11.6,13.6,20.5
		c-0.5,18.3-0.2,372.5,0,532.5h610.8c11,0,20,9,20,20S838.6,891.2,827.5,891.2z"/>
</g>
<g>
	<path class="st0" d="M364.4,891.2c-11,0-20-9-20-20V693c0-11,9-20,20-20s20,9,20,20v178.3C384.4,882.3,375.5,891.2,364.4,891.2z"/>
</g>
<g>
	<path class="st0" d="M487.3,891.2c-11,0-20-9-20-20V604.5c0-11,9-20,20-20s20,9,20,20v266.7C507.3,882.3,498.3,891.2,487.3,891.2z"
		/>
</g>
<g>
	<path class="st0" d="M613,891.2c-11,0-20-9-20-20V688c0-11,9-20,20-20s20,9,20,20v183.3C633,882.3,624.1,891.2,613,891.2z"/>
</g>
<g>
	<path class="st0" d="M738.7,891.2c-11,0-20-9-20-20V566.5c0-11,9-20,20-20s20,9,20,20v304.7C758.7,882.3,749.8,891.2,738.7,891.2z"
		/>
</g>
<g>
	<path class="st0" d="M320.4,603.6c-5.1,0-10.2-2-14.2-5.9c-7.8-7.8-7.8-20.4,0-28.3c2.1-2.1,157.2-154.6,174.9-172
		c3.9-3.8,9-5.9,14.5-5.7c5.4,0.1,10.5,2.4,14.2,6.4l110,118.2l158.7-162.4l-56.1,1.9c-0.2,0-0.5,0-0.7,0c-10.7,0-19.6-8.5-20-19.3
		c-0.4-11,8.3-20.3,19.3-20.7l105.8-3.6c8.2-0.3,15.7,4.4,19,11.9c3.3,7.5,1.7,16.2-4,22L633.7,559.2c-3.8,3.9-8.9,6-14.3,6
		c-0.1,0-0.2,0-0.2,0c-5.5-0.1-10.7-2.4-14.4-6.4L494.5,440.4c-61.5,60.5-157.8,155.2-160,157.4
		C330.6,601.6,325.5,603.6,320.4,603.6z"/>
</g>
<g>
	<path class="st0" d="M827.5,448.7c-11,0-20-9-20-20v-96.6c0-11,9-20,20-20s20,9,20,20v96.6C847.5,439.8,838.6,448.7,827.5,448.7z"
		/>
</g>
</svg>
