<?xml version="1.0" encoding="utf-8"?>
<!-- Generator: Adobe Illustrator 18.0.0, SVG Export Plug-In . SVG Version: 6.00 Build 0)  -->
<!DOCTYPE svg PUBLIC "-//W3C//DTD SVG 1.1//EN" "http://www.w3.org/Graphics/SVG/1.1/DTD/svg11.dtd">
<svg version="1.1" id="图层_1" xmlns="http://www.w3.org/2000/svg" xmlns:xlink="http://www.w3.org/1999/xlink" x="0px" y="0px"
	 viewBox="0 0 1024 1024" style="enable-background:new 0 0 1024 1024;" xml:space="preserve">
<style type="text/css">
	.st0{fill:#040000;}
	.st1{fill:none;stroke:#040000;stroke-width:45;stroke-linecap:round;stroke-linejoin:round;stroke-miterlimit:10;}
	.st2{fill:none;stroke:#000000;stroke-width:50;stroke-linecap:round;stroke-miterlimit:10;}
	.st3{fill:#231815;}
	.st4{fill:none;}
	.st5{fill-rule:evenodd;clip-rule:evenodd;}
</style>
<g>
	<path d="M439.5,901.1c-46.8,0-92.2-9.2-134.9-27.2c-41.3-17.5-78.3-42.4-110.2-74.3s-56.8-68.9-74.3-110.2
		C102.1,646.7,93,601.3,93,554.6s9.2-92.2,27.2-134.9c17.5-41.3,42.4-78.3,74.3-110.2c31.8-31.8,68.9-56.8,110.2-74.3
		c42.7-18.1,88.1-27.2,134.9-27.2c12.4,0,22.5,10.1,22.5,22.5S451.9,253,439.5,253C273.2,253,138,388.3,138,554.6
		c0,166.3,135.3,301.6,301.6,301.6c166.3,0,301.6-135.3,301.6-301.6c0-12.4,10.1-22.5,22.5-22.5s22.5,10.1,22.5,22.5
		c0,46.8-9.2,92.2-27.2,134.9c-17.5,41.3-42.4,78.3-74.3,110.2c-31.8,31.8-68.9,56.8-110.2,74.3C531.7,892,486.3,901.1,439.5,901.1z
		"/>
</g>
<g>
	<path d="M763.5,571.2h-324c-12.4,0-22.5-10.1-22.5-22.5V230.5c0-12.4,10.1-22.5,22.5-22.5s22.5,10.1,22.5,22.5v295.6h301.5
		c12.4,0,22.5,10.1,22.5,22.5S775.9,571.2,763.5,571.2z"/>
</g>
<g>
	<path d="M846,482H534.3c-12.4,0-22.5-10.1-22.5-22.5V151.9c0-10.5,7.2-19.6,17.5-21.9c20.7-4.7,42-7.2,63.3-7.2
		c75.3,0,146,29.3,199.2,82.5c53.2,53.2,82.5,124,82.5,199.2c0,20.1-2.1,40.2-6.3,59.7C865.8,474.7,856.6,482,846,482z M556.8,437
		h270.3c1.5-10.7,2.2-21.6,2.2-32.5c0-130.5-106.2-236.7-236.7-236.7c-12,0-24,0.9-35.8,2.7V437z"/>
</g>
</svg>
