<?xml version="1.0" encoding="utf-8"?>
<!-- Generator: Adobe Illustrator 18.0.0, SVG Export Plug-In . SVG Version: 6.00 Build 0)  -->
<!DOCTYPE svg PUBLIC "-//W3C//DTD SVG 1.1//EN" "http://www.w3.org/Graphics/SVG/1.1/DTD/svg11.dtd">
<svg version="1.1" id="图层_1" xmlns="http://www.w3.org/2000/svg" xmlns:xlink="http://www.w3.org/1999/xlink" x="0px" y="0px"
	 viewBox="0 0 1000 1000" style="enable-background:new 0 0 1000 1000;" xml:space="preserve">
<style type="text/css">
	.st0{fill:#020000;}
	.st1{fill-rule:evenodd;clip-rule:evenodd;}
	.st2{fill:#020202;}
	.st3{fill:#5A9BFD;stroke:#5A9BFD;stroke-width:40;stroke-linecap:round;stroke-miterlimit:10;}
	.st4{fill:none;stroke:#FFFFFF;stroke-width:40;stroke-linecap:round;stroke-miterlimit:10;}
	.st5{fill:none;stroke:#020000;stroke-width:50;stroke-linecap:round;stroke-miterlimit:10;}
	.st6{fill:none;}
	.st7{fill:none;stroke:#000000;stroke-width:50;stroke-linecap:round;stroke-linejoin:round;stroke-miterlimit:10;}
</style>
<g>
	<path d="M472.2,925.1c-47.1,0-92.8-9.2-135.9-27.4c-41.6-17.6-78.9-42.7-110.9-74.8c-32-32-57.2-69.4-74.8-110.9
		c-18.2-43-27.4-88.8-27.4-135.9s9.2-92.8,27.4-135.9c17.6-41.6,42.7-78.9,74.8-110.9s69.4-57.2,110.9-74.8
		c43-18.2,88.8-27.4,135.9-27.4c13.8,0,25,11.2,25,25c0,13.8-11.2,25-25,25c-164.9,0-299.1,134.2-299.1,299.1
		s134.2,299.1,299.1,299.1S771.3,741,771.3,576.1c0-13.8,11.2-25,25-25s25,11.2,25,25c0,47.1-9.2,92.8-27.4,135.9
		c-17.6,41.6-42.7,78.9-74.8,110.9c-32,32-69.4,57.2-110.9,74.8C565.1,915.9,519.4,925.1,472.2,925.1z"/>
</g>
<g>
	<path d="M796.2,595.2h-324c-13.8,0-25-11.2-25-25V252c0-13.8,11.2-25,25-25s25,11.2,25,25v293.1h299c13.8,0,25,11.2,25,25
		S810,595.2,796.2,595.2z"/>
</g>
<g>
	<path d="M878.8,506H567.1c-13.8,0-25-11.2-25-25V173.4c0-11.6,8-21.8,19.4-24.4c20.8-4.8,42.3-7.2,63.9-7.2
		c75.9,0,147.3,29.6,201,83.2c53.7,53.7,83.2,125.1,83.2,201c0,20.3-2.2,40.6-6.4,60.2C900.7,497.8,890.5,506,878.8,506z M592.1,456
		h265.6c1.3-9.9,1.9-19.9,1.9-30c0-129.1-105.1-234.2-234.2-234.2c-11.2,0-22.3,0.8-33.3,2.3V456z"/>
</g>
</svg>
