<?xml version="1.0" encoding="utf-8"?>
<!-- Generator: Adobe Illustrator 18.0.0, SVG Export Plug-In . SVG Version: 6.00 Build 0)  -->
<!DOCTYPE svg PUBLIC "-//W3C//DTD SVG 1.1//EN" "http://www.w3.org/Graphics/SVG/1.1/DTD/svg11.dtd">
<svg version="1.1" id="图层_1" xmlns="http://www.w3.org/2000/svg" xmlns:xlink="http://www.w3.org/1999/xlink" x="0px" y="0px"
	 viewBox="0 0 1024 1024" style="enable-background:new 0 0 1024 1024;" xml:space="preserve">
<style type="text/css">
	.st0{fill:#040000;}
	.st1{fill:none;stroke:#040000;stroke-width:45;stroke-linecap:round;stroke-linejoin:round;stroke-miterlimit:10;}
</style>
<g>
	<path d="M512,931.2c-50.8,0-100-9.9-146.4-29.6c-44.8-18.9-85-46.1-119.6-80.6c-34.5-34.5-61.7-74.8-80.6-119.6
		c-19.6-46.4-29.6-95.7-29.6-146.4c0-149.4,88.5-284.8,225.4-344.7c10.1-4.4,21.9,0.2,26.3,10.3s-0.2,21.9-10.3,26.3
		c-122.4,53.6-201.4,174.5-201.4,308.1c0,185.4,150.8,336.2,336.2,336.2s336.2-150.8,336.2-336.2c0-130.7-76.7-250.6-195.5-305.4
		c-10-4.6-14.4-16.5-9.8-26.5c4.6-10,16.5-14.4,26.5-9.8c64.4,29.7,118.9,76.9,157.7,136.4c39.9,61.1,60.9,132.1,60.9,205.4
		c0,50.8-9.9,100-29.6,146.4c-18.9,44.8-46.1,85-80.6,119.6c-34.5,34.5-74.8,61.7-119.6,80.6C612,921.2,562.8,931.2,512,931.2z"/>
</g>
<g>
	<path d="M523.2,511.8c-11,0-20-9-20-20v-412c0-11,9-20,20-20s20,9,20,20v412C543.2,502.9,534.3,511.8,523.2,511.8z"/>
</g>
</svg>
