<?xml version="1.0" encoding="utf-8"?>
<!-- Generator: Adobe Illustrator 18.0.0, SVG Export Plug-In . SVG Version: 6.00 Build 0)  -->
<!DOCTYPE svg PUBLIC "-//W3C//DTD SVG 1.1//EN" "http://www.w3.org/Graphics/SVG/1.1/DTD/svg11.dtd">
<svg version="1.1" id="图层_1" xmlns="http://www.w3.org/2000/svg" xmlns:xlink="http://www.w3.org/1999/xlink" x="0px" y="0px"
	 viewBox="0 0 1024 1024" style="enable-background:new 0 0 1024 1024;" xml:space="preserve">
<style type="text/css">
	.st0{fill:#040000;}
	.st1{fill:none;stroke:#040000;stroke-width:45;stroke-linecap:round;stroke-linejoin:round;stroke-miterlimit:10;}
	.st2{fill:none;stroke:#000000;stroke-width:50;stroke-linecap:round;stroke-miterlimit:10;}
	.st3{fill:#231815;}
	.st4{fill:none;}
	.st5{fill-rule:evenodd;clip-rule:evenodd;}
</style>
<g>
	<path d="M737.9,801.1H187.4c-39.4,0-71.4-32-71.4-71.4V357.1c0-39.4,32-71.4,71.4-71.4h550.5c39.4,0,71.4,32,71.4,71.4v58.2
		c0,12.4-10.1,22.5-22.5,22.5s-22.5-10.1-22.5-22.5v-58.2c0-14.6-11.8-26.4-26.4-26.4H187.4c-14.6,0-26.4,11.8-26.4,26.4v372.6
		c0,14.6,11.8,26.4,26.4,26.4h550.5c14.6,0,26.4-11.8,26.4-26.4V677c0-12.4,10.1-22.5,22.5-22.5s22.5,10.1,22.5,22.5v52.7
		C809.3,769.1,777.3,801.1,737.9,801.1z"/>
</g>
<g>
	<path d="M226.2,323.1c-9,0-17.5-5.4-20.9-14.3c-4.5-11.6,1.1-24.6,12.7-29.2l407.2-160.2c11.5-4.5,24.5,1.1,29.1,12.6l35.8,89.4
		c4.6,11.5-1,24.6-12.5,29.3c-11.5,4.6-24.6-1-29.3-12.5l-27.5-68.6l-386.4,152C231.7,322.6,228.9,323.1,226.2,323.1z"/>
</g>
<g>
	<path d="M429.3,565.9c-7.8,0-15-4-19.1-10.6l-80.1-128.1c-6.6-10.5-3.4-24.4,7.2-31c10.5-6.6,24.4-3.4,31,7.2l60.5,96.8l57-96.3
		c6.3-10.7,20.1-14.2,30.8-7.9c10.7,6.3,14.2,20.1,7.9,30.8l-75.9,128.1c-4,6.8-11.2,10.9-19.1,11
		C429.5,565.9,429.4,565.9,429.3,565.9z"/>
</g>
<g>
	<path d="M427.2,717.7c-12.4,0-22.5-10.1-22.5-22.5V543.4c0-12.4,10.1-22.5,22.5-22.5s22.5,10.1,22.5,22.5v151.7
		C449.7,707.6,439.7,717.7,427.2,717.7z"/>
</g>
<g>
	<path d="M519.5,571H349.3c-12.4,0-22.5-10.1-22.5-22.5s10.1-22.5,22.5-22.5h170.3c12.4,0,22.5,10.1,22.5,22.5S532,571,519.5,571z"
		/>
</g>
<g>
	<path d="M519.5,646.9H349.3c-12.4,0-22.5-10.1-22.5-22.5s10.1-22.5,22.5-22.5h170.3c12.4,0,22.5,10.1,22.5,22.5
		S532,646.9,519.5,646.9z"/>
</g>
<g>
	<path d="M832.7,674.3H731.8c-69.2,0-125.6-56.3-125.6-125.6s56.3-125.6,125.6-125.6h100.9c19,0,34.5,15.5,34.5,34.5v182.1
		C867.2,658.8,851.7,674.3,832.7,674.3z M731.8,468.1c-44.4,0-80.6,36.1-80.6,80.6c0,44.4,36.1,80.6,80.6,80.6h90.4V468.1H731.8z"/>
</g>
<g>
	<circle class="st5" cx="721.5" cy="550" r="20.9"/>
</g>
</svg>
