<?xml version="1.0" encoding="utf-8"?>
<!-- Generator: Adobe Illustrator 18.0.0, SVG Export Plug-In . SVG Version: 6.00 Build 0)  -->
<!DOCTYPE svg PUBLIC "-//W3C//DTD SVG 1.1//EN" "http://www.w3.org/Graphics/SVG/1.1/DTD/svg11.dtd">
<svg version="1.1" id="图层_1" xmlns="http://www.w3.org/2000/svg" xmlns:xlink="http://www.w3.org/1999/xlink" x="0px" y="0px"
	 viewBox="0 0 1000 1000" style="enable-background:new 0 0 1000 1000;" xml:space="preserve">
<style type="text/css">
	.st0{fill:#020000;}
	.st1{fill-rule:evenodd;clip-rule:evenodd;}
	.st2{fill:#020202;}
	.st3{fill:#5A9BFD;stroke:#5A9BFD;stroke-width:40;stroke-linecap:round;stroke-miterlimit:10;}
	.st4{fill:none;stroke:#FFFFFF;stroke-width:40;stroke-linecap:round;stroke-miterlimit:10;}
	.st5{fill:none;stroke:#020000;stroke-width:50;stroke-linecap:round;stroke-miterlimit:10;}
	.st6{fill:none;}
	.st7{fill:none;stroke:#000000;stroke-width:50;stroke-linecap:round;stroke-linejoin:round;stroke-miterlimit:10;}
</style>
<g>
	<path d="M505.3,931.1c-57.7,0-113.6-11.3-166.3-33.6c-50.9-21.5-96.6-52.3-135.8-91.6c-39.2-39.2-70-84.9-91.6-135.8
		C89.3,617.4,78,561.5,78,503.8s11.3-113.6,33.6-166.3c21.5-50.9,52.3-96.6,91.6-135.8c39.2-39.2,84.9-70,135.8-91.6
		c52.7-22.3,108.7-33.6,166.3-33.6s113.6,11.3,166.3,33.6c50.9,21.5,96.6,52.3,135.8,91.6c39.2,39.2,70,84.9,91.6,135.8
		c22.3,52.7,33.6,108.7,33.6,166.3S921.3,617.4,899,670.1c-21.5,50.9-52.3,96.6-91.6,135.8c-39.2,39.2-84.9,70-135.8,91.6
		C618.9,919.8,562.9,931.1,505.3,931.1z M505.3,126.5c-208,0-377.3,169.2-377.3,377.3c0,208,169.2,377.3,377.3,377.3
		s377.3-169.2,377.3-377.3C882.6,295.8,713.3,126.5,505.3,126.5z"/>
</g>
<g>
	<path d="M499.1,503.5c-0.1,0-0.1,0-0.2,0c-8.6-0.1-16.5-4.5-21-11.7L362.1,306.4c-7.3-11.7-3.8-27.1,8-34.5
		c11.7-7.3,27.1-3.8,34.5,8l95,152.1L603.4,271c7.5-11.6,23-14.9,34.6-7.4c11.6,7.5,14.9,23,7.4,34.6L520.1,492.1
		C515.5,499.2,507.6,503.5,499.1,503.5z"/>
</g>
<g>
	<path d="M637.6,527.2H367.9c-13.8,0-25-11.2-25-25s11.2-25,25-25h269.8c13.8,0,25,11.2,25,25S651.5,527.2,637.6,527.2z"/>
</g>
<g>
	<path d="M637.6,640.8H367.9c-13.8,0-25-11.2-25-25s11.2-25,25-25h269.8c13.8,0,25,11.2,25,25S651.5,640.8,637.6,640.8z"/>
</g>
<g>
	<path d="M505.3,768.5c-13.8,0-25-11.2-25-25V471.3c0-13.8,11.2-25,25-25s25,11.2,25,25v272.2C530.3,757.3,519.1,768.5,505.3,768.5z
		"/>
</g>
</svg>
