<?xml version="1.0" encoding="utf-8"?>
<!-- Generator: Adobe Illustrator 18.0.0, SVG Export Plug-In . SVG Version: 6.00 Build 0)  -->
<!DOCTYPE svg PUBLIC "-//W3C//DTD SVG 1.1//EN" "http://www.w3.org/Graphics/SVG/1.1/DTD/svg11.dtd">
<svg version="1.1" id="图层_1" xmlns="http://www.w3.org/2000/svg" xmlns:xlink="http://www.w3.org/1999/xlink" x="0px" y="0px"
	 viewBox="0 0 1024 1024" style="enable-background:new 0 0 1024 1024;" xml:space="preserve">
<style type="text/css">
	.st0{fill:#040000;}
	.st1{fill:none;stroke:#040000;stroke-width:45;stroke-linecap:round;stroke-linejoin:round;stroke-miterlimit:10;}
	.st2{fill:none;stroke:#000000;stroke-width:50;stroke-linecap:round;stroke-miterlimit:10;}
	.st3{fill:#231815;}
	.st4{fill:none;}
	.st5{fill-rule:evenodd;clip-rule:evenodd;}
</style>
<g>
	<path d="M511.2,936.8c-57.3,0-113-11.2-165.4-33.4c-50.6-21.4-96-52-135-91c-39-39-69.6-84.4-91-135C97.7,625,86.4,569.3,86.4,512
		s11.2-113,33.4-165.4c21.4-50.6,52-96,91-135c39-39,84.4-69.6,135-91c52.4-22.2,108-33.4,165.4-33.4s113,11.2,165.4,33.4
		c50.6,21.4,96,52,135,91s69.6,84.4,91,135C924.8,399,936,454.7,936,512s-11.2,113-33.4,165.4c-21.4,50.6-52,96-91,135
		c-39,39-84.4,69.6-135,91C624.2,925.5,568.6,936.8,511.2,936.8z M511.2,132.2c-209.4,0-379.8,170.4-379.8,379.8
		c0,209.4,170.4,379.8,379.8,379.8C720.6,891.8,891,721.4,891,512C891,302.6,720.6,132.2,511.2,132.2z"/>
</g>
<g>
	<path d="M505.1,509.2c-0.1,0-0.1,0-0.2,0c-7.7-0.1-14.8-4-18.9-10.6L370.1,313.2c-6.6-10.5-3.4-24.4,7.2-31s24.4-3.4,31,7.2
		l97.1,155.4l106-164.2c6.7-10.4,20.7-13.4,31.1-6.7c10.4,6.7,13.4,20.7,6.7,31.1L524,498.9C519.8,505.3,512.7,509.2,505.1,509.2z"
		/>
</g>
<g>
	<path d="M643.6,532.9H373.8c-12.4,0-22.5-10.1-22.5-22.5s10.1-22.5,22.5-22.5h269.8c12.4,0,22.5,10.1,22.5,22.5
		S656,532.9,643.6,532.9z"/>
</g>
<g>
	<path d="M643.6,646.5H373.8c-12.4,0-22.5-10.1-22.5-22.5s10.1-22.5,22.5-22.5h269.8c12.4,0,22.5,10.1,22.5,22.5
		S656,646.5,643.6,646.5z"/>
</g>
<g>
	<path d="M511.2,774.2c-12.4,0-22.5-10.1-22.5-22.5V479.4c0-12.4,10.1-22.5,22.5-22.5s22.5,10.1,22.5,22.5v272.2
		C533.7,764.1,523.6,774.2,511.2,774.2z"/>
</g>
</svg>
